<svg xmlns="http://www.w3.org/2000/svg" viewBox="0 0 680 384" width="680" height="384"><style>
text{font-family:-apple-system,"Segoe UI",Helvetica,Arial,sans-serif}
.grid{stroke:#E6E9EE;stroke-width:1}.axis,.thresh{stroke:#737D8C;stroke-width:1}
.tick{fill:#737D8C;font-size:11px}.lab{fill:#141A23;font-size:13.5px;font-weight:600}
.fewt{fill:#46505F}.sub{fill:#737D8C;font-size:11.5px}.val,.valhot{fill:#141A23;font-size:12.5px;font-weight:600}
.bar{fill:#B7C0CC}.bar.hot{fill:#C2412D}.ci{stroke:#46505F;stroke-width:1.25}.hit{fill:none}
.stem{stroke:#B7C0CC;stroke-width:2}.dot{stroke:#FFFFFF;stroke-width:2}.dot.right{fill:#2F6DB5}.dot.wrong{fill:#C2412D}
.few{opacity:.55}.ttl{fill:#141A23;font-size:16px;font-weight:700}.cap{fill:#737D8C;font-size:11.5px}
</style><rect x="0.5" y="0.5" width="679" height="383" rx="8" fill="#FFFFFF" stroke="#DCE0E6"/><text x="20" y="34" class="ttl">Mean stated confidence on numeric answers</text><circle cx="484" cy="30" r="5" class="dot right"/><text x="494" y="34" class="sub">When right</text><circle cx="576" cy="30" r="5" class="dot wrong"/><text x="586" y="34" class="sub">When wrong</text><g transform="translate(20,52)"><line x1="168.0" y1="26" x2="168.0" y2="254" class="grid"/><text x="168.0" y="274" class="tick" text-anchor="middle">0</text><line x1="278.5" y1="26" x2="278.5" y2="254" class="grid"/><text x="278.5" y="274" class="tick" text-anchor="middle">25</text><line x1="389.0" y1="26" x2="389.0" y2="254" class="grid"/><text x="389.0" y="274" class="tick" text-anchor="middle">50</text><line x1="499.5" y1="26" x2="499.5" y2="254" class="grid"/><text x="499.5" y="274" class="tick" text-anchor="middle">75</text><line x1="610.0" y1="26" x2="610.0" y2="254" class="grid"/><text x="610.0" y="274" class="tick" text-anchor="middle">100</text><line x1="499.5" y1="26" x2="499.5" y2="254" class="thresh"/><text x="504.5" y="22" class="sub">75 = "confident"</text><g class="mark" tabindex="0" data-tip="GPT-5.6 Luna: mean stated confidence 98 when right (n=17), 87 when wrong (n=199); 216 numeric answers given."><rect x="164" y="36.0" width="450" height="40" class="hit"/><line x1="552.1" y1="56.0" x2="600.3" y2="56.0" class="stem"/><circle cx="552.1" cy="56.0" r="6" class="dot wrong"/><circle cx="600.3" cy="56.0" r="6" class="dot right"/></g><text x="154" y="54.0" class="lab" text-anchor="end">GPT-5.6 Luna</text><text x="154" y="69.0" class="sub" text-anchor="end">216 answers</text><text x="541.1" y="60.5" class="val" text-anchor="end">87</text><text x="611.3" y="60.5" class="val">98</text><g class="mark" tabindex="0" data-tip="GPT-5.6 Sol: mean stated confidence 76 when right (n=77), 50 when wrong (n=285); 362 numeric answers given."><rect x="164" y="80.0" width="450" height="40" class="hit"/><line x1="391.2" y1="100.0" x2="502.2" y2="100.0" class="stem"/><circle cx="391.2" cy="100.0" r="6" class="dot wrong"/><circle cx="502.2" cy="100.0" r="6" class="dot right"/></g><text x="154" y="98.0" class="lab" text-anchor="end">GPT-5.6 Sol</text><text x="154" y="113.0" class="sub" text-anchor="end">362 answers</text><text x="380.2" y="104.5" class="val" text-anchor="end">50</text><text x="513.2" y="104.5" class="val">76</text><g class="mark" tabindex="0" data-tip="Claude Opus 5: mean stated confidence 63 when right (n=63), 44 when wrong (n=294); 357 numeric answers given."><rect x="164" y="124.0" width="450" height="40" class="hit"/><line x1="363.8" y1="144.0" x2="445.1" y2="144.0" class="stem"/><circle cx="363.8" cy="144.0" r="6" class="dot wrong"/><circle cx="445.1" cy="144.0" r="6" class="dot right"/></g><text x="154" y="142.0" class="lab" text-anchor="end">Claude Opus 5</text><text x="154" y="157.0" class="sub" text-anchor="end">357 answers</text><text x="352.8" y="148.5" class="val" text-anchor="end">44</text><text x="456.1" y="148.5" class="val">63</text><g class="mark few" tabindex="0" data-tip="Gemini 3.1 Pro: mean stated confidence 72 when right (n=17), 64 when wrong (n=7); 24 numeric answers given."><rect x="164" y="168.0" width="450" height="40" class="hit"/><line x1="452.2" y1="188.0" x2="485.4" y2="188.0" class="stem"/><circle cx="452.2" cy="188.0" r="6" class="dot wrong"/><circle cx="485.4" cy="188.0" r="6" class="dot right"/></g><text x="154" y="186.0" class="lab fewt" text-anchor="end">Gemini 3.1 Pro</text><text x="154" y="201.0" class="sub" text-anchor="end">only 24 answers</text><g class="mark few" tabindex="0" data-tip="Grok 4.6: mean stated confidence 60 when right (n=30), 53 when wrong (n=38); 68 numeric answers given."><rect x="164" y="212.0" width="450" height="40" class="hit"/><line x1="403.1" y1="232.0" x2="435.4" y2="232.0" class="stem"/><circle cx="403.1" cy="232.0" r="6" class="dot wrong"/><circle cx="435.4" cy="232.0" r="6" class="dot right"/></g><text x="154" y="230.0" class="lab fewt" text-anchor="end">Grok 4.6</text><text x="154" y="245.0" class="sub" text-anchor="end">only 68 answers</text></g><text x="20" y="368" class="cap">Gemini and Grok declined most numeric questions (faded: few answers). Tickmark run d849113d369c.</text></svg>